<svg width="304" height="162" viewBox="0 0 304 162" fill="none" xmlns="http://www.w3.org/2000/svg">
<path d="M151.989 157.571C112.247 149.617 83.4287 112.293 83.4287 68.7976V29.2105C83.4287 27.6106 83.9543 26.0564 84.9142 24.7764C85.874 23.4964 87.2452 22.5593 88.7992 22.1251L147.784 5.02857C150.526 4.2286 153.451 4.2286 156.217 5.02857L215.201 22.1251C216.755 22.5822 218.103 23.4964 219.086 24.7764C220.046 26.0564 220.572 27.6106 220.572 29.2105V68.7976C220.549 112.316 191.731 149.663 151.989 157.571Z" fill="#69B42E"/>
<path fill-rule="evenodd" clip-rule="evenodd" d="M151.874 4.42902C150.494 4.43971 149.117 4.63955 147.784 5.02854L88.7992 22.125C87.2452 22.5593 85.874 23.4964 84.9142 24.7764C83.9543 26.0563 83.4287 27.6106 83.4287 29.2105V68.7976C83.4287 112.251 112.192 149.546 151.874 157.548V4.42902Z" fill="white" fill-opacity="0.15"/>
<path fill-rule="evenodd" clip-rule="evenodd" d="M133.714 45.5034C133.714 42.9787 135.761 40.932 138.286 40.932H165.714C168.239 40.932 170.286 42.9787 170.286 45.5034V104.932C170.286 107.457 168.239 109.503 165.714 109.503H138.286C135.761 109.503 133.714 107.457 133.714 104.932V45.5034ZM154.057 105.618C154.057 106.754 153.136 107.675 152 107.675C150.864 107.675 149.943 106.754 149.943 105.618C149.943 104.482 150.864 103.561 152 103.561C153.136 103.561 154.057 104.482 154.057 105.618ZM138.717 43.2177H143.07V44.132C143.07 44.8894 143.684 45.5034 144.442 45.5034H158.613C159.37 45.5034 159.984 44.8894 159.984 44.132V43.2177H165.283C166.784 43.2177 168 44.4343 168 45.935V99.9291C168 101.43 166.784 102.646 165.283 102.646H138.717C137.217 102.646 136 101.43 136 99.9291V45.935C136 44.4343 137.217 43.2177 138.717 43.2177Z" fill="white"/>
<path fill-rule="evenodd" clip-rule="evenodd" d="M143.07 43.2177H138.717C137.217 43.2177 136 44.4343 136 45.935V99.9291C136 101.43 137.217 102.646 138.717 102.646H165.283C166.784 102.646 168 101.43 168 99.9291V45.935C168 44.4343 166.784 43.2177 165.283 43.2177H159.984V44.132C159.984 44.8894 159.37 45.5034 158.613 45.5034H144.442C143.684 45.5034 143.07 44.8894 143.07 44.132V43.2177Z" fill="white" fill-opacity="0.35"/>
</svg>
